<svg xmlns="http://www.w3.org/2000/svg" viewBox="0 0 800 600" width="100%" height="100%">
  <rect width="800" height="600" rx="32" fill="#0A0F1D" stroke="#1E293B" stroke-width="4"/>
  <circle cx="400" cy="300" r="220" fill="#1DA1F2" opacity="0.08"/>
  
  <!-- Giant Smartphone -->
  <rect x="140" y="100" width="220" height="400" rx="28" fill="#0F172A" stroke="#1DA1F2" stroke-width="4"/>
  <rect x="155" y="130" width="190" height="340" rx="16" fill="#1E293B"/>
  <circle cx="250" cy="115" r="4" fill="#334155"/>
  <rect x="175" y="160" width="150" height="24" rx="6" fill="#1DA1F2"/>
  <rect x="175" y="200" width="110" height="12" rx="4" fill="#0ED3DC"/>
  <rect x="175" y="225" width="130" height="12" rx="4" fill="#94A3B8"/>
  
  <!-- Rocket Launching -->
  <path d="M 420 320 L 460 220 L 500 320 L 470 300 L 460 350 L 450 300 Z" fill="url(#purpleGrad)"/>
  <polygon points="460,220 440,260 480,260" fill="#0ED3DC"/>
  <circle cx="460" cy="270" r="10" fill="#FFFFFF"/>

  <!-- Code Windows -->
  <rect x="420" y="100" width="260" height="160" rx="16" fill="#0F172A" stroke="#0ED3DC" stroke-width="2"/>
  <text x="440" y="135" fill="#0ED3DC" font-family="monospace" font-size="14" font-weight="bold">&lt;FullstackApp /&gt;</text>
  <text x="440" y="165" fill="#94A3B8" font-family="monospace" font-size="12">const app = express();</text>
  <text x="440" y="190" fill="#10B981" font-family="monospace" font-size="12">await db.connect();</text>

  <text x="550" y="470" text-anchor="middle" fill="#FFFFFF" font-family="sans-serif" font-weight="900" font-size="22">Web &amp; Mobile Stack</text>
  <text x="550" y="500" text-anchor="middle" fill="#0ED3DC" font-family="sans-serif" font-size="14">React • Node • React Native</text>
</svg>